<?xml version="1.0" encoding="UTF-8" standalone="no" ?>
<!DOCTYPE svg PUBLIC "-//W3C//DTD SVG 1.1//EN" "http://www.w3.org/Graphics/SVG/1.1/DTD/svg11.dtd">
<svg xmlns="http://www.w3.org/2000/svg" xmlns:xlink="http://www.w3.org/1999/xlink" version="1.1" width="500" height="500" viewBox="0 0 500 500" xml:space="preserve">
<desc>Created with Fabric.js 4.6.0</desc>
<defs>
</defs>
<g transform="matrix(1 0 0 1 249.5 247.61)" id="K2qDwJBNxO3B1nrFr1PQc"  >
<path style="stroke: none; stroke-width: 1; stroke-dasharray: none; stroke-linecap: butt; stroke-dashoffset: 0; stroke-linejoin: miter; stroke-miterlimit: 4; fill: rgb(97,218,251); fill-rule: nonzero; opacity: 1;" vector-effect="non-scaling-stroke"  transform=" translate(-248, -220.86)" d="M 496.00122 220.90636 C 496.00122 188.04843 454.85314 156.90923 391.76615 137.59888 C 406.32469 73.29845 399.85423 22.14119000000001 371.34376 5.7627700000000175 C 364.7722 1.9209200000000175 357.08853 0.10110000000001751 348.69714999999997 0.10110000000001751 L 348.69714999999997 22.646690000000017 C 353.34779 22.646690000000017 357.08853 23.556600000000017 360.22265999999996 25.27532000000002 C 373.97238999999996 33.16122000000002 379.93733999999995 63.188310000000016 375.28669999999994 101.80901000000003 C 374.17458999999997 111.31253000000002 372.3547699999999 121.32156000000003 370.1305499999999 131.53279000000003 C 350.3147699999999 126.67993000000004 328.6791599999999 122.93918000000004 305.9314499999999 120.51275000000004 C 292.2828199999999 101.80901000000004 278.12868999999995 84.82399000000004 263.8734599999999 69.96210000000005 C 296.8323699999999 39.328400000000045 327.7692499999999 22.545590000000047 348.79824999999994 22.545590000000047 L 348.79824999999994 4.618527782440651e-14 C 320.99548999999996 4.618527782440651e-14 284.59914999999995 19.815860000000047 247.79840999999993 54.19030000000005 C 210.99766999999994 20.018060000000048 174.60132999999993 0.4044000000000523 146.79856999999993 0.4044000000000523 L 146.79856999999993 22.949990000000053 C 167.72645999999992 22.949990000000053 198.76444999999993 39.631710000000055 231.72335999999993 70.06320000000005 C 217.56922999999992 84.92509000000005 203.41509999999994 101.80901000000006 189.96866999999992 120.51275000000005 C 167.1198599999999 122.93918000000005 145.48425999999992 126.67993000000006 125.66846999999991 131.63389000000006 C 123.34314999999991 121.52376000000007 121.62442999999992 111.71693000000006 120.41121999999991 102.31451000000007 C 115.65947999999992 63.69381000000007 121.52332999999992 33.66672000000007 135.17195999999993 25.679720000000074 C 138.20498999999992 23.859900000000074 142.1479199999999 23.051090000000073 146.79856999999993 23.051090000000073 L 146.79856999999993 0.5055000000000724 C 138.30608999999993 0.5055000000000724 130.62241999999992 2.3253200000000724 123.94975999999993 6.167170000000072 C 95.54039999999992 22.545580000000072 89.17103999999992 73.60174000000006 103.83066999999993 137.6999700000001 C 40.945879999999924 157.1114200000001 -7.105427357601002e-14 188.1495200000001 -7.105427357601002e-14 220.9063500000001 C -7.105427357601002e-14 253.7642800000001 41.14807999999993 284.90348000000006 104.23506999999992 304.2138300000001 C 89.67652999999993 368.5142600000001 96.14698999999992 419.6715200000001 124.65745999999993 436.0499400000001 C 131.22901999999993 439.8917900000001 138.91268999999994 441.7116100000001 147.40516999999994 441.7116100000001 C 175.20792999999995 441.7116100000001 211.60426999999993 421.89575000000013 248.40500999999995 387.52131000000014 C 285.20574999999997 421.69355000000013 321.60209 441.30721000000017 349.40484999999995 441.30721000000017 C 357.89732999999995 441.30721000000017 365.58099999999996 439.4873900000002 372.25365999999997 435.64554000000015 C 400.66301999999996 419.2671300000002 407.03238 368.21097000000015 392.37275 304.11274000000014 C 455.05533 284.8023900000002 496.00121 253.66319000000016 496.00121 220.90636000000015 z M 364.36779 153.47179 C 360.62706000000003 166.51386 355.97641 179.96033 350.71916 193.40681 C 346.57401999999996 185.31871 342.22668 177.2306 337.47494 169.1425 C 332.8243 161.05440000000002 327.87035000000003 153.16849000000002 322.9164 145.48479 C 337.27273 147.60792 351.12356 150.23655 364.36779 153.47179 z M 318.06356 261.14468 C 310.17769 274.79336 302.08961 287.73431999999997 293.69822999999997 299.76538 C 278.63419 301.0797 263.36794999999995 301.78740999999997 248.00059999999996 301.78740999999997 C 232.73435999999995 301.78740999999997 217.46811999999997 301.07969999999995 202.50517999999997 299.86648999999994 C 194.11379999999997 287.8354299999999 185.92462999999998 274.99556999999993 178.03874999999996 261.44798999999995 C 170.35507999999996 248.20371999999995 163.37910999999997 234.75723999999994 157.00974999999997 221.20966999999996 C 163.27800999999997 207.66208999999995 170.35506999999996 194.11451999999997 177.93763999999996 180.87024999999997 C 185.82350999999997 167.22156999999996 193.91158999999996 154.28060999999997 202.30296999999996 142.24954999999997 C 217.36700999999996 140.93522999999996 232.63324999999995 140.22751999999997 248.00059999999996 140.22751999999997 C 263.26683999999995 140.22751999999997 278.53308 140.93522999999996 293.49602 142.14843999999997 C 301.8874 154.17949999999996 310.07657 167.01935999999998 317.96245 180.56693999999996 C 325.64612 193.81120999999996 332.62209 207.25768999999997 338.99145 220.80525999999998 C 332.62208999999996 234.35284 325.64612999999997 247.90040999999997 318.06356 261.14468 z M 350.71916 248.00151 C 356.17861 261.54909 360.82925 275.09666 364.67109 288.23983 C 351.42687 291.47506999999996 337.47494 294.20481 323.0175 296.32793 C 327.97145 288.54312999999996 332.92539 280.55613 337.57604 272.36692 C 342.22668 264.27882 346.57401999999996 256.08961 350.71916 248.0015 z M 248.20281 355.8766 C 238.80042 346.17087 229.39804 335.35303 220.09675 323.52418 C 229.19583 323.92859 238.49712 324.23189 247.89951 324.23189 C 257.403 324.23189 266.80539 324.02969 276.00557 323.52418 C 266.90648999999996 335.35303 257.5041 346.17087 248.20280999999997 355.8766 z M 172.98371 296.32793 C 158.62738000000002 294.2048 144.77655000000001 291.57617 131.53232 288.34092999999996 C 135.27305 275.29885999999993 139.9237 261.85238999999996 145.18095 248.40590999999995 C 149.32609 256.49400999999995 153.67343 264.58212 158.42517 272.67022 C 163.17691000000002 280.75831999999997 168.02976 288.64423 172.98371 296.32793 z M 247.6973 85.93611 C 257.09969 95.64184 266.50207 106.45967999999999 275.80336 118.28853000000001 C 266.70428 117.88412000000001 257.40299 117.58082 248.0006 117.58082 C 238.49711 117.58082 229.09472 117.78302000000001 219.89454 118.28853000000001 C 228.99362000000002 106.45968 238.39601000000002 95.64184 247.6973 85.93611000000001 z M 172.88261 145.48478 C 167.92866 153.26958 162.97472 161.25658 158.32407 169.44579 C 153.67343 177.53388999999999 149.32609 185.62199999999999 145.18095 193.71009999999998 C 139.7215 180.16251999999997 135.07085999999998 166.61495 131.22902 153.47177999999997 C 144.47324 150.33763999999996 158.42516999999998 147.60789999999997 172.88261 145.48477999999997 z M 81.38626 272.06362 C 45.596529999999994 256.79732 22.44440999999999 236.77926000000002 22.44440999999999 220.90636 C 22.44440999999999 205.03345000000002 45.59652999999999 184.91429 81.38626 169.7491 C 90.08094 166.00835 99.58443 162.67201 109.39121999999999 159.53787 C 115.15396999999999 179.35372999999998 122.73653999999999 199.97839 132.13893 221.10857 C 122.83764 242.13763999999998 115.35616999999999 262.66121 109.69451999999998 282.37595999999996 C 99.68552999999999 279.24181999999996 90.18203999999999 275.80436999999995 81.38625999999998 272.06363 z M 135.77856 416.53739 C 122.02883 408.65149 116.06388 378.62440000000004 120.71452 340.0037 C 121.82663 330.50018 123.64644999999999 320.49115 125.87066999999999 310.27992 C 145.68644999999998 315.13278 167.32206 318.87353 190.06977 321.29996 C 203.7184 340.0037 217.87253 356.98872 232.12776 371.85061 C 199.16885 402.48431 168.23197 419.26712000000003 147.20297 419.26712000000003 C 142.65343 419.16602000000006 138.81159 418.25611000000004 135.77856 416.53738000000004 z M 375.58999 339.49819 C 380.34173 378.11889 374.47788 408.14598 360.82925 416.13298000000003 C 357.79622 417.9528 353.85329 418.76161 349.20264 418.76161 C 328.27475 418.76161 297.23676 402.07989000000003 264.27784999999994 371.64840000000004 C 278.43197999999995 356.78651 292.58610999999996 339.90259000000003 306.0325399999999 321.19885000000005 C 328.88134999999994 318.77242000000007 350.51694999999995 315.0316700000001 370.33273999999994 310.07771 C 372.6580599999999 320.28894 374.47787999999997 330.09577 375.58998999999994 339.49819 z M 414.51386 272.06362 C 405.81918 275.80437 396.31569 279.14071 386.50890000000004 282.27485 C 380.74615000000006 262.45899000000003 373.16358 241.83433000000002 363.76119000000006 220.70415000000003 C 373.06248000000005 199.67508000000004 380.54395000000005 179.15151000000003 386.20560000000006 159.43676000000002 C 396.21459000000004 162.57090000000002 405.71808000000004 166.00835 414.61496000000005 169.74909000000002 C 450.4046900000001 185.01539000000002 473.55681000000004 205.03345000000002 473.55681000000004 220.90635000000003 C 473.45571000000007 236.77926000000002 450.30359000000004 256.89842000000004 414.51386 272.06361000000004 z" stroke-linecap="round" />
</g>
<g transform="matrix(1 0 0 1 249.5 241.82)" id="lkJ97oR0Syn3PWkEYTLi-"  >
<path style="stroke: none; stroke-width: 1; stroke-dasharray: none; stroke-linecap: butt; stroke-dashoffset: 0; stroke-linejoin: miter; stroke-miterlimit: 4; fill: rgb(97,218,251); fill-rule: nonzero; opacity: 1;" vector-effect="non-scaling-stroke"  transform=" translate(-75, -56.51)" d="M 64.59582 88.16878 C 64.76082000000001 88.03378 64.83582 87.80878 64.71582000000001 87.61377999999999 C 53.48382000000001 63.49974999999999 39.47983000000001 40.78062999999999 22.975330000000007 19.903609999999986 C 22.975330000000007 19.903609999999986 9.856330000000007 32.32067999999999 10.784830000000007 44.826149999999984 C 11.248330000000006 50.63717999999999 13.960330000000006 56.04470999999998 18.392830000000007 59.83372999999999 C 29.834830000000007 70.99228999999998 57.527820000000006 85.05626999999998 63.96732 88.24527999999998 C 64.17732 88.36527999999998 64.43082 88.32027999999998 64.58082 88.15527999999998 M 60.32682 97.70873 C 60.236819999999994 97.45373000000001 59.99832 97.28873 59.72832 97.28873 L 59.72832 97.30373 L 13.613829999999993 98.90724 C 18.616329999999994 107.83379000000001 27.032829999999993 114.75333 35.80931999999999 112.62631 C 41.860319999999994 111.11280000000001 55.57930999999999 101.54275 60.10180999999999 98.30723 L 60.10180999999999 98.29223 C 60.44530999999999 97.97723 60.326809999999995 97.72223000000001 60.326809999999995 97.72223000000001 M 61.01532 93.58981 C 61.240320000000004 93.22981 60.83532 92.91481 60.83532 92.91481 L 60.83532 92.89981 C 40.586830000000006 79.21074 1.3318399999999997 58.24222 1.3318399999999997 58.24222 C -3.0856600000000007 71.88629 3.8173399999999997 86.62377000000001 17.13284 91.97130000000001 C 19.94834 93.09481000000001 22.92884 93.73831000000001 25.954340000000002 93.91831000000002 C 26.642840000000003 94.05331000000002 53.37733 93.93331000000002 60.53533 93.90331000000002 C 60.73033 93.87331000000002 60.90883 93.76831000000001 61.01383 93.58831000000002 M 64.07082 0 C 62.06382 0.18 56.64282 1.40851 56.64282 1.40851 C 49.49982 3.23552 43.792320000000004 8.61305 41.54682 15.65259 C 40.27482 20.44512 40.30482 25.49264 41.60682 30.28517 C 45.68082 48.34827 65.74931 78.07683 70.04831 84.30636 C 70.34681 84.60636 70.60181 84.50135999999999 70.60181 84.50135999999999 C 70.87031 84.44135999999999 71.03531 84.20136 71.02031 83.93136 L 71.03531 83.93136 C 77.66981 17.568200000000004 64.07081 -0.013400000000004297 64.07081 0.001599999999996271 M 79.34682 84.48326 C 79.60032 84.58826 79.88532 84.48326 80.00532 84.22826 L 80.00532 84.22826 C 84.45282 77.81723000000001 104.37281 48.267160000000004 108.41681 30.267070000000004 C 109.63031 25.474540000000005 109.65881 20.457020000000004 108.49181 15.649490000000004 C 106.23131000000001 8.579950000000004 100.44881000000001 3.187420000000003 93.24581 1.420410000000004 C 93.24581 1.420410000000004 89.72681 0.536910000000004 85.98281 0.011900000000004018 C 85.98281 0.011900000000004018 72.30881 17.610000000000003 78.95831 83.98666 L 78.97331 83.98666 C 78.98831 84.19666 79.12331 84.39166 79.34681 84.48166 M 90.25031 97.30373 C 90.25031 97.30373 89.84681 97.36373 89.74181 97.64873 C 89.68181 97.87373 89.75681 98.11373 89.92181000000001 98.27873 L 89.92181000000001 98.27873 C 94.33931000000001 101.43925 107.72981000000001 110.8008 114.1693 112.62781 C 114.1693 112.62781 126.0913 116.68683 136.43979000000002 98.89374 L 90.26530000000002 97.27523 z M 148.7218 58.14012 C 148.7218 58.14012 109.51181 79.16863000000001 89.24832 92.85771 L 89.24832 92.85771 C 89.00832000000001 93.00771 88.94982 93.27771 89.00832000000001 93.53271 C 89.00832000000001 93.53271 89.20332 93.87771 89.48682000000001 93.87771 L 89.48682000000001 93.89271 L 124.87781000000001 93.80270999999999 C 127.60331000000001 93.59271 130.28381000000002 92.97921 132.81581 91.97569999999999 C 139.43531 89.38368999999999 144.76781 84.27765999999998 147.65831 77.77662 C 150.36881 71.57558999999999 150.74381 64.61104999999999 148.69181 58.15660999999999 M 85.51781 88.13878 C 85.69781 88.27378 85.93630999999999 88.28878 86.14631 88.18378 L 86.14631 88.19878 C 92.75081 84.90326 120.2488 70.92919 131.6308 59.832229999999996 C 136.04829999999998 55.99820999999999 138.7738 50.57567999999999 139.22379999999998 44.734649999999995 C 140.04729999999998 31.839079999999996 127.04829999999998 19.872119999999995 127.04829999999998 19.872119999999995 C 110.58879999999999 40.69063 96.59980999999999 63.334759999999996 85.38280999999998 87.37379 L 85.39780999999998 87.37379 C 85.27780999999997 87.61379 85.32280999999998 87.91379 85.51780999999998 88.10879" stroke-linecap="round" />
</g>
</svg>